<svg width="100%" viewBox="0 0 100 460" fill="none" xmlns="http://www.w3.org/2000/svg">
<path opacity="0.55" d="M23.4 33.9H214.8C216.035 33.8987 217.258 34.1409 218.399 34.6129C219.54 35.0848 220.577 35.7771 221.45 36.6503C222.323 37.5234 223.015 38.5602 223.487 39.7012C223.959 40.8423 224.201 42.0652 224.2 43.3V414.7C224.201 415.935 223.959 417.158 223.487 418.299C223.015 419.44 222.323 420.477 221.45 421.35C220.577 422.223 219.54 422.915 218.399 423.387C217.258 423.859 216.035 424.101 214.8 424.1H23.4C22.1652 424.101 20.9423 423.859 19.8012 423.387C18.6602 422.915 17.6234 422.223 16.7503 421.35C15.8771 420.477 15.1848 419.44 14.7129 418.299C14.2409 417.158 13.9987 415.935 14 414.7V43.3C13.9987 42.0652 14.2409 40.8423 14.7129 39.7012C15.1848 38.5602 15.8771 37.5234 16.7503 36.6503C17.6234 35.7771 18.6602 35.0848 19.8012 34.6129C20.9423 34.1409 22.1652 33.8987 23.4 33.9Z" fill="white"/>
<path d="M219.1 0.800003H19.1C14.2787 0.81844 9.66021 2.74185 6.25104 6.15102C2.84186 9.5602 0.918431 14.1787 0.899994 19V439.2C0.899994 441.59 1.37076 443.957 2.2854 446.165C3.20004 448.373 4.54063 450.379 6.23065 452.069C7.92068 453.759 9.92704 455.1 12.1352 456.015C14.3433 456.929 16.7099 457.4 19.1 457.4H219.1C221.49 457.4 223.857 456.929 226.065 456.015C228.273 455.1 230.279 453.759 231.969 452.069C233.659 450.379 235 448.373 235.915 446.165C236.829 443.957 237.3 441.59 237.3 439.2V19C237.3 16.6099 236.829 14.2433 235.915 12.0352C235 9.82704 233.659 7.82068 231.969 6.13065C230.279 4.44063 228.273 3.10003 226.065 2.18539C223.857 1.27076 221.49 0.800003 219.1 0.800003ZM224.2 414.8C224.201 416.035 223.959 417.258 223.487 418.399C223.015 419.54 222.323 420.577 221.45 421.45C220.577 422.323 219.54 423.015 218.399 423.487C217.258 423.959 216.035 424.201 214.8 424.2H23.4C22.1652 424.201 20.9423 423.959 19.8012 423.487C18.6602 423.015 17.6234 422.323 16.7503 421.45C15.8771 420.577 15.1848 419.54 14.7129 418.399C14.2409 417.258 13.9987 416.035 14 414.8V43.3C13.9987 42.0652 14.2409 40.8423 14.7129 39.7012C15.1848 38.5602 15.8771 37.5234 16.7503 36.6503C17.6234 35.7771 18.6602 35.0848 19.8012 34.6129C20.9423 34.1409 22.1652 33.8987 23.4 33.9H214.8C216.035 33.8987 217.258 34.1409 218.399 34.6129C219.54 35.0848 220.577 35.7771 221.45 36.6503C222.323 37.5234 223.015 38.5602 223.487 39.7012C223.959 40.8423 224.201 42.0652 224.2 43.3V414.8Z" fill="#33254B" fill-opacity="0.890196"/>
<path opacity="0.2" d="M19.1 457.3H219.1C221.49 457.3 223.857 456.829 226.065 455.915C228.273 455 230.279 453.659 231.969 451.969C233.659 450.279 235 448.273 235.915 446.065C236.829 443.857 237.3 441.49 237.3 439.1V19C237.28 14.7646 235.796 10.6665 233.1 7.39999L219 34.9C220.558 35.6832 221.869 36.8827 222.787 38.3655C223.704 39.8482 224.194 41.5562 224.2 43.3V414.7C224.201 415.935 223.959 417.158 223.487 418.299C223.015 419.44 222.323 420.477 221.45 421.35C220.577 422.223 219.54 422.915 218.399 423.387C217.258 423.859 216.035 424.101 214.8 424.1H23.4C22.0473 424.111 20.7111 423.803 19.5 423.2L5.29999 451C6.99501 453.001 9.1107 454.603 11.4961 455.692C13.8815 456.781 16.4779 457.33 19.1 457.3Z" fill="black"/>
<path d="M108.5 23.4C107.294 23.4 106.114 23.0422 105.111 22.372C104.108 21.7017 103.326 20.749 102.864 19.6344C102.403 18.5197 102.282 17.2932 102.517 16.11C102.753 14.9267 103.334 13.8397 104.187 12.9866C105.04 12.1335 106.127 11.5526 107.31 11.3172C108.493 11.0818 109.72 11.2026 110.834 11.6643C111.949 12.126 112.902 12.9079 113.572 13.911C114.242 14.9142 114.6 16.0935 114.6 17.3C114.605 18.1026 114.451 18.8982 114.146 19.6406C113.842 20.3831 113.393 21.0577 112.825 21.6252C112.258 22.1927 111.583 22.6418 110.841 22.9465C110.098 23.2512 109.303 23.4053 108.5 23.4Z" fill="white"/>
<path d="M156.1 17.3C156.085 16.3235 155.69 15.3914 154.999 14.7008C154.309 14.0103 153.377 13.6155 152.4 13.6H128.2C127.224 13.6155 126.291 14.0103 125.601 14.7008C124.91 15.3914 124.515 16.3235 124.5 17.3C124.499 17.7863 124.593 18.268 124.779 18.7175C124.964 19.167 125.237 19.5754 125.581 19.9192C125.925 20.2631 126.333 20.5356 126.783 20.721C127.232 20.9065 127.714 21.0013 128.2 21H152.4C152.889 21.0095 153.374 20.9203 153.827 20.7377C154.28 20.5552 154.692 20.283 155.037 19.9375C155.383 19.592 155.655 19.1803 155.838 18.7271C156.02 18.2739 156.11 17.7885 156.1 17.3Z" fill="white"/>
<path d="M39.5 75.5H149.9C150.137 75.4987 150.371 75.5443 150.59 75.6343C150.809 75.7243 151.008 75.8568 151.176 76.0242C151.343 76.1917 151.476 76.3906 151.566 76.6096C151.656 76.8286 151.701 77.0633 151.7 77.3V187.7C151.701 187.937 151.656 188.171 151.566 188.39C151.476 188.609 151.343 188.808 151.176 188.976C151.008 189.143 150.809 189.276 150.59 189.366C150.371 189.456 150.137 189.501 149.9 189.5H39.5C39.2632 189.501 39.0286 189.456 38.8096 189.366C38.5906 189.276 38.3917 189.143 38.2242 188.976C38.0568 188.808 37.9243 188.609 37.8343 188.39C37.7443 188.171 37.6987 187.937 37.7 187.7V77.3C37.7306 76.8326 37.93 76.3923 38.2612 76.0612C38.5923 75.73 39.0326 75.5305 39.5 75.5Z" fill="#E4E4E4"/>
<path d="M35.4 71.3H145.8C146.037 71.2987 146.271 71.3443 146.49 71.4343C146.709 71.5243 146.908 71.6568 147.076 71.8242C147.243 71.9917 147.376 72.1906 147.466 72.4096C147.556 72.6286 147.601 72.8633 147.6 73.1V183.5C147.601 183.737 147.556 183.971 147.466 184.19C147.376 184.409 147.243 184.608 147.076 184.776C146.908 184.943 146.709 185.076 146.49 185.166C146.271 185.256 146.037 185.301 145.8 185.3H35.4C35.1632 185.301 34.9286 185.256 34.7096 185.166C34.4906 185.076 34.2916 184.943 34.1242 184.776C33.9568 184.608 33.8243 184.409 33.7343 184.19C33.6443 183.971 33.5987 183.737 33.6 183.5V73.1C33.615 72.6274 33.8095 72.1782 34.1438 71.8438C34.4782 71.5095 34.9274 71.315 35.4 71.3Z" fill="#FFFFF8"/>
<path d="M124.9 195.1H147.1C147.167 195.096 147.234 195.105 147.296 195.129C147.359 195.153 147.416 195.189 147.463 195.237C147.511 195.284 147.547 195.341 147.571 195.404C147.594 195.466 147.604 195.533 147.6 195.6V218.8C147.604 218.867 147.594 218.934 147.571 218.996C147.547 219.059 147.511 219.116 147.463 219.163C147.416 219.211 147.359 219.247 147.296 219.271C147.234 219.295 147.167 219.304 147.1 219.3H124.9C124.833 219.304 124.766 219.295 124.704 219.271C124.641 219.247 124.584 219.211 124.537 219.163C124.489 219.116 124.453 219.059 124.429 218.996C124.406 218.934 124.396 218.867 124.4 218.8V195.6C124.396 195.533 124.406 195.466 124.429 195.404C124.453 195.341 124.489 195.284 124.537 195.237C124.584 195.189 124.641 195.153 124.704 195.129C124.766 195.105 124.833 195.096 124.9 195.1Z" fill="#BCBEC0"/>
<path d="M137.9 214.7H130.5V202.2H141.5V211" stroke="white" stroke-width="0.54" stroke-miterlimit="10"/>
<path d="M133.3 205.1C133.742 205.1 134.1 204.742 134.1 204.3C134.1 203.858 133.742 203.5 133.3 203.5C132.858 203.5 132.5 203.858 132.5 204.3C132.5 204.742 132.858 205.1 133.3 205.1Z" fill="white"/>
<path d="M137.9 204.3C137.9 204.142 137.947 203.987 138.035 203.856C138.123 203.724 138.248 203.621 138.394 203.561C138.54 203.5 138.701 203.485 138.856 203.515C139.011 203.546 139.154 203.622 139.266 203.734C139.378 203.846 139.454 203.989 139.485 204.144C139.515 204.299 139.5 204.46 139.439 204.606C139.379 204.752 139.276 204.877 139.144 204.965C139.013 205.053 138.858 205.1 138.7 205.1C138.593 205.109 138.485 205.095 138.383 205.058C138.282 205.021 138.19 204.962 138.114 204.886C138.038 204.81 137.979 204.718 137.942 204.617C137.905 204.515 137.891 204.407 137.9 204.3Z" fill="white"/>
<path d="M133.3 203.9V201.1C133.299 200.745 133.368 200.393 133.503 200.065C133.638 199.737 133.837 199.439 134.088 199.188C134.339 198.937 134.637 198.738 134.965 198.603C135.293 198.468 135.645 198.399 136 198.4C136.355 198.399 136.707 198.468 137.035 198.603C137.363 198.738 137.661 198.937 137.912 199.188C138.163 199.439 138.362 199.737 138.497 200.065C138.632 200.393 138.701 200.745 138.7 201.1V203.9" stroke="white" stroke-width="0.36" stroke-miterlimit="10"/>
<path d="M141.5 214.7V212" stroke="white" stroke-width="0.54" stroke-miterlimit="10"/>
<path d="M141.5 217.4V214.7" stroke="white" stroke-width="0.54" stroke-miterlimit="10"/>
<path d="M141.5 214.7H138.8" stroke="white" stroke-width="0.54" stroke-miterlimit="10"/>
<path d="M144.2 214.7H141.5" stroke="white" stroke-width="0.54" stroke-miterlimit="10"/>
<path d="M90.6 160.9H119.2L117 114.1L126.8 125.8L139.7 111.9C139.7 111.9 122.8 91.1 119.8 89.5C116.8 87.9 103 86.7 103 86.7C102.7 91.1 99.3 98.3 90.7 98.3C82.1 98.3 78.6 91.1 78.3 86.7C78.3 86.7 64.5 87.8 61.5 89.5C58.5 91.2 41.5 111.9 41.5 111.9L54.4 125.8L64.2 114.1L62 160.9H90.6Z" fill="#5925B3" fill-opacity="0.890196"/>
<path d="M171.1 243.6H281.5C281.737 243.599 281.971 243.644 282.19 243.734C282.409 243.824 282.608 243.957 282.776 244.124C282.943 244.292 283.076 244.491 283.166 244.71C283.256 244.929 283.301 245.163 283.3 245.4V355.8C283.301 356.037 283.256 356.271 283.166 356.49C283.076 356.709 282.943 356.908 282.776 357.076C282.608 357.243 282.409 357.376 282.19 357.466C281.971 357.556 281.737 357.601 281.5 357.6H171.1C170.863 357.601 170.629 357.556 170.41 357.466C170.191 357.376 169.992 357.243 169.824 357.076C169.657 356.908 169.524 356.709 169.434 356.49C169.344 356.271 169.299 356.037 169.3 355.8V245.4C169.299 245.163 169.344 244.929 169.434 244.71C169.524 244.491 169.657 244.292 169.824 244.124C169.992 243.957 170.191 243.824 170.41 243.734C170.629 243.644 170.863 243.599 171.1 243.6Z" fill="#E4E4E4"/>
<path d="M167 239.5H277.3C277.537 239.499 277.771 239.544 277.99 239.634C278.209 239.724 278.408 239.857 278.576 240.024C278.743 240.192 278.876 240.391 278.966 240.61C279.056 240.829 279.101 241.063 279.1 241.3V351.7C279.101 351.937 279.056 352.171 278.966 352.39C278.876 352.609 278.743 352.808 278.576 352.976C278.408 353.143 278.209 353.276 277.99 353.366C277.771 353.456 277.537 353.501 277.3 353.5H167C166.763 353.501 166.529 353.456 166.31 353.366C166.091 353.276 165.892 353.143 165.724 352.976C165.557 352.808 165.424 352.609 165.334 352.39C165.244 352.171 165.199 351.937 165.2 351.7V241.3C165.199 241.063 165.244 240.829 165.334 240.61C165.424 240.391 165.557 240.192 165.724 240.024C165.892 239.857 166.091 239.724 166.31 239.634C166.529 239.544 166.763 239.499 167 239.5Z" fill="#FFFFF8"/>
<path d="M257 363.2H278.1C278.391 363.203 278.669 363.319 278.875 363.525C279.081 363.731 279.197 364.009 279.2 364.3V386.3C279.197 386.591 279.081 386.869 278.875 387.075C278.669 387.281 278.391 387.397 278.1 387.4H257C256.709 387.397 256.431 387.281 256.225 387.075C256.019 386.869 255.903 386.591 255.9 386.3V364.3C255.903 364.009 256.019 363.731 256.225 363.525C256.431 363.319 256.709 363.203 257 363.2Z" fill="#BCBEC0"/>
<path d="M269.4 382.8H262V370.3H273V379.2" stroke="white" stroke-width="0.54" stroke-miterlimit="10"/>
<path d="M264.1 372.5C264.099 372.395 264.118 372.29 264.158 372.192C264.198 372.095 264.257 372.006 264.331 371.931C264.406 371.857 264.495 371.798 264.592 371.758C264.69 371.718 264.795 371.699 264.9 371.7C265.005 371.699 265.11 371.718 265.208 371.758C265.305 371.798 265.394 371.857 265.469 371.931C265.543 372.006 265.602 372.095 265.642 372.192C265.682 372.29 265.701 372.395 265.7 372.5C265.709 372.607 265.695 372.715 265.658 372.817C265.621 372.918 265.562 373.01 265.486 373.086C265.41 373.162 265.318 373.221 265.217 373.258C265.115 373.295 265.007 373.309 264.9 373.3C264.795 373.301 264.69 373.282 264.592 373.242C264.495 373.202 264.406 373.143 264.331 373.069C264.257 372.994 264.198 372.905 264.158 372.808C264.118 372.71 264.099 372.605 264.1 372.5Z" fill="white"/>
<path d="M269.4 372.5C269.399 372.395 269.418 372.29 269.458 372.192C269.498 372.095 269.557 372.006 269.631 371.931C269.706 371.857 269.795 371.798 269.892 371.758C269.99 371.718 270.095 371.699 270.2 371.7C270.305 371.699 270.41 371.718 270.508 371.758C270.605 371.798 270.694 371.857 270.769 371.931C270.843 372.006 270.902 372.095 270.942 372.192C270.982 372.29 271.001 372.395 271 372.5C271.009 372.607 270.995 372.715 270.958 372.817C270.921 372.918 270.862 373.01 270.786 373.086C270.71 373.162 270.618 373.221 270.517 373.258C270.415 373.295 270.307 373.309 270.2 373.3C269.992 373.286 269.797 373.197 269.65 373.05C269.503 372.903 269.414 372.708 269.4 372.5Z" fill="white"/>
<path d="M264.9 372V369.2C264.899 368.845 264.968 368.493 265.103 368.165C265.238 367.837 265.437 367.539 265.688 367.288C265.939 367.037 266.237 366.838 266.565 366.703C266.893 366.568 267.245 366.499 267.6 366.5C267.955 366.499 268.307 366.568 268.635 366.703C268.963 366.838 269.261 367.037 269.512 367.288C269.763 367.539 269.962 367.837 270.097 368.165C270.232 368.493 270.301 368.845 270.3 369.2V372" stroke="white" stroke-width="0.36" stroke-miterlimit="10"/>
<path d="M273 382.8V380.1" stroke="white" stroke-width="0.54" stroke-miterlimit="10"/>
<path d="M273 385.5V382.8" stroke="white" stroke-width="0.54" stroke-miterlimit="10"/>
<path d="M273 382.8H270.4" stroke="white" stroke-width="0.54" stroke-miterlimit="10"/>
<path d="M275.7 382.8H273" stroke="white" stroke-width="0.54" stroke-miterlimit="10"/>
<path d="M222.1 329H250.7L248.5 282.2L258.3 294L271.2 280C271.2 280 254.3 259.2 251.3 257.6C248.3 256 234.5 254.8 234.5 254.8C234.2 259.2 230.8 266.4 222.2 266.4C213.6 266.4 210.1 259.2 209.9 254.8C209.9 254.8 196.1 255.9 193.1 257.6C190.1 259.3 173 280 173 280L186 294L195.8 282.3L193.6 329.1L222.1 329Z" fill="#33254B" fill-opacity="0.890196"/>
<path d="M171.1 75.5H281.5C281.737 75.4987 281.971 75.5443 282.19 75.6343C282.409 75.7243 282.608 75.8568 282.776 76.0242C282.943 76.1917 283.076 76.3906 283.166 76.6096C283.256 76.8286 283.301 77.0633 283.3 77.3V187.7C283.301 187.937 283.256 188.171 283.166 188.39C283.076 188.609 282.943 188.808 282.776 188.976C282.608 189.143 282.409 189.276 282.19 189.366C281.971 189.456 281.737 189.501 281.5 189.5H171.1C170.863 189.501 170.629 189.456 170.41 189.366C170.191 189.276 169.992 189.143 169.824 188.976C169.657 188.808 169.524 188.609 169.434 188.39C169.344 188.171 169.299 187.937 169.3 187.7V77.3C169.299 77.0633 169.344 76.8286 169.434 76.6096C169.524 76.3906 169.657 76.1917 169.824 76.0242C169.992 75.8568 170.191 75.7243 170.41 75.6343C170.629 75.5443 170.863 75.4987 171.1 75.5Z" fill="#E4E4E4"/>
<path d="M167 71.3H277.3C277.537 71.2987 277.771 71.3443 277.99 71.4343C278.209 71.5243 278.408 71.6568 278.576 71.8242C278.743 71.9917 278.876 72.1906 278.966 72.4096C279.056 72.6286 279.101 72.8633 279.1 73.1V183.5C279.101 183.737 279.056 183.971 278.966 184.19C278.876 184.409 278.743 184.608 278.576 184.776C278.408 184.943 278.209 185.076 277.99 185.166C277.771 185.256 277.537 185.301 277.3 185.3H167C166.763 185.301 166.529 185.256 166.31 185.166C166.091 185.076 165.892 184.943 165.724 184.776C165.557 184.608 165.424 184.409 165.334 184.19C165.244 183.971 165.199 183.737 165.2 183.5V73.1C165.215 72.6274 165.409 72.1782 165.744 71.8438C166.078 71.5095 166.527 71.315 167 71.3Z" fill="#FFFFF8"/>
<path d="M257 195.1H278.1C278.391 195.103 278.669 195.219 278.875 195.425C279.081 195.631 279.197 195.909 279.2 196.2V218.2C279.197 218.491 279.081 218.769 278.875 218.975C278.669 219.181 278.391 219.297 278.1 219.3H257C256.709 219.297 256.431 219.181 256.225 218.975C256.019 218.769 255.903 218.491 255.9 218.2V196.2C255.903 195.909 256.019 195.631 256.225 195.425C256.431 195.219 256.709 195.103 257 195.1Z" fill="#BCBEC0"/>
<path d="M269.4 214.7H262V202.2H273V211" stroke="white" stroke-width="0.54" stroke-miterlimit="10"/>
<path d="M264.9 205.1C265.342 205.1 265.7 204.742 265.7 204.3C265.7 203.858 265.342 203.5 264.9 203.5C264.458 203.5 264.1 203.858 264.1 204.3C264.1 204.742 264.458 205.1 264.9 205.1Z" fill="white"/>
<path d="M270.2 205.1C270.642 205.1 271 204.742 271 204.3C271 203.858 270.642 203.5 270.2 203.5C269.758 203.5 269.4 203.858 269.4 204.3C269.4 204.742 269.758 205.1 270.2 205.1Z" fill="white"/>
<path d="M264.9 203.9V201.1C264.899 200.745 264.968 200.393 265.103 200.065C265.238 199.737 265.437 199.439 265.688 199.188C265.939 198.937 266.237 198.738 266.565 198.603C266.893 198.468 267.245 198.399 267.6 198.4C267.955 198.399 268.307 198.468 268.635 198.603C268.963 198.738 269.261 198.937 269.512 199.188C269.763 199.439 269.962 199.737 270.097 200.065C270.232 200.393 270.301 200.745 270.3 201.1V203.9" stroke="white" stroke-width="0.36" stroke-miterlimit="10"/>
<path d="M273 214.7V212" stroke="white" stroke-width="0.54" stroke-miterlimit="10"/>
<path d="M273 217.4V214.7" stroke="white" stroke-width="0.54" stroke-miterlimit="10"/>
<path d="M273 214.7H270.4" stroke="white" stroke-width="0.54" stroke-miterlimit="10"/>
<path d="M275.7 214.7H273" stroke="white" stroke-width="0.54" stroke-miterlimit="10"/>
<path d="M196.1 99C187.2 107.6 188.6 117.1 191.8 128.3C195 139.5 196.4 160.9 196.4 160.9H204.2C204.2 160.9 203.3 137.2 208.8 135.4C214.3 133.6 224.4 154.1 226.4 157.3C228.4 160.5 232.7 160.9 237.4 160.9H265C265 160.9 273.1 154.6 258.4 147.5C248.9 142.9 247.2 141.7 247.2 141.7C247.2 141.7 234.7 141.2 221.7 128.3C216.6 123.2 210.4 109.4 205.8 104.5C200.5 99 196.1 99 196.1 99Z" fill="#33254B" fill-opacity="0.890196"/>
<path d="M39.6 243.6H150C150.237 243.599 150.471 243.644 150.69 243.734C150.909 243.824 151.108 243.957 151.276 244.124C151.443 244.292 151.576 244.491 151.666 244.71C151.756 244.929 151.801 245.163 151.8 245.4V355.8C151.801 356.037 151.756 356.271 151.666 356.49C151.576 356.709 151.443 356.908 151.276 357.076C151.108 357.243 150.909 357.376 150.69 357.466C150.471 357.556 150.237 357.601 150 357.6H39.5C39.2632 357.601 39.0286 357.556 38.8096 357.466C38.5906 357.376 38.3917 357.243 38.2242 357.076C38.0568 356.908 37.9243 356.709 37.8343 356.49C37.7443 356.271 37.6987 356.037 37.7 355.8V245.4C37.7208 244.912 37.9307 244.451 38.2853 244.115C38.64 243.779 39.1115 243.594 39.6 243.6Z" fill="#E4E4E4"/>
<path d="M35.4 239.5H145.8C146.037 239.499 146.271 239.544 146.49 239.634C146.709 239.724 146.908 239.857 147.076 240.024C147.243 240.192 147.376 240.391 147.466 240.61C147.556 240.829 147.601 241.063 147.6 241.3V351.7C147.601 351.937 147.556 352.171 147.466 352.39C147.376 352.609 147.243 352.808 147.076 352.976C146.908 353.143 146.709 353.276 146.49 353.366C146.271 353.456 146.037 353.501 145.8 353.5H35.4C35.1632 353.501 34.9286 353.456 34.7096 353.366C34.4906 353.276 34.2916 353.143 34.1242 352.976C33.9568 352.808 33.8243 352.609 33.7343 352.39C33.6443 352.171 33.5987 351.937 33.6 351.7V241.3C33.5987 241.063 33.6443 240.829 33.7343 240.61C33.8243 240.391 33.9568 240.192 34.1242 240.024C34.2916 239.857 34.4906 239.724 34.7096 239.634C34.9286 239.544 35.1632 239.499 35.4 239.5Z" fill="#FFFFF8"/>
<path d="M125.5 363.2H146.6C146.891 363.203 147.169 363.319 147.375 363.525C147.581 363.731 147.697 364.009 147.7 364.3V386.3C147.697 386.591 147.581 386.869 147.375 387.075C147.169 387.281 146.891 387.397 146.6 387.4H125.5C125.209 387.397 124.931 387.281 124.725 387.075C124.519 386.869 124.403 386.591 124.4 386.3V364.3C124.403 364.009 124.519 363.731 124.725 363.525C124.931 363.319 125.209 363.203 125.5 363.2Z" fill="#BCBEC0"/>
<path d="M137.9 382.8H130.5V370.3H141.5V379.2" stroke="white" stroke-width="0.54" stroke-miterlimit="10"/>
<path d="M132.5 372.5C132.5 372.288 132.584 372.084 132.734 371.934C132.884 371.784 133.088 371.7 133.3 371.7C133.512 371.7 133.716 371.784 133.866 371.934C134.016 372.084 134.1 372.288 134.1 372.5C134.109 372.607 134.095 372.715 134.058 372.817C134.021 372.918 133.962 373.01 133.886 373.086C133.81 373.162 133.718 373.221 133.617 373.258C133.515 373.295 133.407 373.309 133.3 373.3C133.195 373.301 133.09 373.282 132.992 373.242C132.895 373.202 132.806 373.143 132.731 373.069C132.657 372.994 132.598 372.905 132.558 372.808C132.518 372.71 132.499 372.605 132.5 372.5Z" fill="white"/>
<path d="M137.9 372.5C137.9 372.288 137.984 372.084 138.134 371.934C138.284 371.784 138.488 371.7 138.7 371.7C138.912 371.7 139.116 371.784 139.266 371.934C139.416 372.084 139.5 372.288 139.5 372.5C139.509 372.607 139.495 372.715 139.458 372.817C139.421 372.918 139.362 373.01 139.286 373.086C139.21 373.162 139.118 373.221 139.017 373.258C138.915 373.295 138.807 373.309 138.7 373.3C138.595 373.301 138.49 373.282 138.392 373.242C138.295 373.202 138.206 373.143 138.131 373.069C138.057 372.994 137.998 372.905 137.958 372.808C137.918 372.71 137.899 372.605 137.9 372.5Z" fill="white"/>
<path d="M133.3 372V369.2C133.299 368.845 133.368 368.493 133.503 368.165C133.638 367.837 133.837 367.539 134.088 367.288C134.339 367.037 134.637 366.838 134.965 366.703C135.293 366.568 135.645 366.499 136 366.5C136.355 366.499 136.707 366.568 137.035 366.703C137.363 366.838 137.661 367.037 137.912 367.288C138.163 367.539 138.362 367.837 138.497 368.165C138.632 368.493 138.701 368.845 138.7 369.2V372" stroke="white" stroke-width="0.36" stroke-miterlimit="10"/>
<path d="M141.5 382.8V380.1" stroke="white" stroke-width="0.54" stroke-miterlimit="10"/>
<path d="M141.5 385.5V382.8" stroke="white" stroke-width="0.54" stroke-miterlimit="10"/>
<path d="M141.5 382.8H138.8" stroke="white" stroke-width="0.54" stroke-miterlimit="10"/>
<path d="M144.2 382.8H141.5" stroke="white" stroke-width="0.54" stroke-miterlimit="10"/>
<path d="M64.5 267.1C55.6 275.7 57 285.2 60.2 296.4C63.4 307.6 64.8 329 64.8 329H72.6C72.6 329 71.7 305.3 77.2 303.5C82.7 301.7 92.8 322.2 94.8 325.4C96.8 328.6 101.1 329 105.8 329H133.4C133.4 329 141.5 322.7 126.8 315.6C117.3 311 115.6 309.8 115.6 309.8C115.6 309.8 103.1 309.3 90.1 296.4C85 291.4 78.8 277.5 74.2 272.6C68.9 267.1 64.5 267.1 64.5 267.1Z" fill="#5925B3" fill-opacity="0.890196"/>
</svg>
